<svg version="1.1" preserveAspectRatio="none" xmlns="http://www.w3.org/2000/svg" width="500" height="500" viewBox="0 0 500 500"><rect width="100%" height="100%" fill="#232128" fill-opacity="1"/><svg viewBox="96.9107 345.8301 538.5018 150" width="333" height="92.75735011470714" x="83.5px" y="203.6213px" xmlns="http://www.w3.org/2000/svg" xmlns:xlink="http://www.w3.org/1999/xlink" preserveAspectRatio="none"><defs></defs><style>.companyName {fill:#A5AEAD;fill-opacity:1;}.icon1 {fill:#A4747F;fill-opacity:1;}.icon2 {fill:#8CA6A2;fill-opacity:1;}.icon3 {fill:#5E718C;fill-opacity:1;}.icon3-str {stroke:#5E718C;stroke-opacity:1;}</style><g opacity="1" transform="rotate(0 96.9107 345.8301)">
<svg width="150.0033" height="150" x="96.9107" y="345.8301" version="1.1" preserveAspectRatio="none" viewBox="7.043000221252441 7.156000137329102 86.8800048828125 86.87800598144531">
  <g transform="matrix(1 0 0 1 0 0)" class="icon1"><rect x="7.043" y="44.38" width="24.818" height="12.405"></rect><rect x="7.043" y="7.156" width="12.409" height="12.408"></rect><rect x="19.452" y="19.564" width="12.409" height="12.405"></rect><rect x="44.269" y="69.214" width="12.409" height="24.82"></rect><rect x="69.104" y="44.38" width="24.818" height="12.405"></rect><rect x="44.269" y="7.156" width="12.409" height="24.813"></rect><rect x="81.514" y="7.156" width="12.409" height="12.408"></rect><rect x="69.104" y="19.564" width="12.409" height="12.405"></rect><rect x="7.043" y="81.619" width="12.409" height="12.415"></rect><rect x="19.452" y="69.214" width="12.409" height="12.405"></rect><rect x="81.514" y="81.619" width="12.409" height="12.415"></rect><rect x="69.104" y="69.214" width="12.409" height="12.405"></rect></g>
</svg>
</g><g opacity="1" transform="rotate(0 272.914 375.8301)">
<svg width="362.4985" height="90" x="272.914" y="375.8301" version="1.1" preserveAspectRatio="none" viewBox="2.4805 -28.418 116.11319999999999 28.8282">
  <g transform="matrix(1 0 0 1 0 0)" class="companyName"><path id="id-D6z1nYkh4" d="M26.33-25.06Q27.79-26.72 30.75-26.72Q33.71-26.72 34.49-26.29L34.49-26.29L35.02-25.80Q35.02-25.10 34.24-24.17Q33.46-23.24 33.34-22.93L33.34-22.93Q32.89-21.80 32.89-19.77Q32.89-17.73 32.95-16.35L32.95-16.35L33.14-12.89Q33.24-10.57 33.24-7.68Q33.24-4.79 33.51-4.05Q33.77-3.32 34.53-2.68L34.53-2.68L35.64-1.70Q35.64-0.59 33.30-0.59L33.30-0.59Q30.04-0.59 28.14-1.02L28.14-1.02Q26.80-1.33 26.80-2.25L26.80-2.25L26.93-2.79Q27.66-5.08 27.66-6.22Q27.66-7.36 27.39-10.53Q27.13-13.69 27.13-16.21Q27.13-18.73 26.93-18.73L26.93-18.73Q26.43-18.73 23.98-12.21Q21.54-5.68 20.61-3.85L20.61-3.85Q19.24-1.15 17.92-1.15Q16.60-1.15 15.80-2.77L15.80-2.77L15.35-3.85Q15.14-4.39 14.06-7.15L14.06-7.15L12.32-11.54Q9.55-18.54 8.96-18.54Q8.36-18.54 8.36-13.16L8.36-13.16Q8.36-10.61 8.46-8.81L8.46-8.81L8.61-6.76Q8.69-5.76 8.69-4.77L8.69-4.77L8.77-3.83L8.87-3.05Q8.93-2.44 8.93-1.45L8.93-1.45L8.59-1.05Q7.70-0.41 6.13-0.41L6.13-0.41Q2.48-0.41 2.48-1.33L2.48-1.33Q2.48-1.72 3.23-2.75Q3.98-3.79 4.28-4.72Q4.57-5.64 4.57-8.79L4.57-8.79L4.61-9.94L4.69-11.11Q4.96-16.58 4.96-18.42Q4.96-20.25 4.72-21.33Q4.47-22.40 3.60-23.84Q2.73-25.27 2.73-25.90L2.73-25.90L3.14-26.37Q3.96-26.97 4.86-26.97L4.86-26.97L5.92-26.97Q7.85-26.97 9.51-26.22Q11.17-25.47 12.03-24.22L12.03-24.22L12.58-23.32Q13.24-22.13 13.93-20.34Q14.61-18.55 15.92-15.62Q17.23-12.68 18.16-11.13L18.16-11.13L18.67-10.49Q19.22-10.49 22.43-17.38Q25.64-24.28 26.33-25.06L26.33-25.06Z M73.59-26.56L73.59-26.56Q76.37-26.56 76.37-25.16L76.37-25.16Q76.37-24.65 75.06-22.11Q73.75-19.57 73.32-18.20L73.32-18.20L72.40-15.04Q69.63-5.64 68.96-3.59L68.96-3.59L68.63-2.58Q68.05-1.31 66.70-0.59L66.70-0.59Q66.07-0.25 65.23-0.25Q64.39-0.25 63.79-0.84Q63.18-1.43 62.57-2.79Q61.95-4.16 59.95-10.11Q57.95-16.05 57.77-16.05L57.77-16.05L57.44-15.47L57.13-14.43Q56.72-13.05 56.48-12.32L56.48-12.32L55.51-9.22Q53.61-3.16 53.09-2.20Q52.56-1.23 51.82-0.66Q51.07-0.10 50.43-0.10L50.43-0.10Q48.55-0.10 47.54-1.88L47.54-1.88Q47.19-2.48 43.85-13.18L43.85-13.18L43.52-14.22Q42.56-17.30 42.21-18.38L42.21-18.38L41.88-19.39Q41.23-21.23 40.09-23.00Q38.95-24.77 38.95-25.27Q38.95-25.78 39.52-26.26Q40.10-26.74 41.11-26.74L41.11-26.74Q45.76-26.74 47.62-25.45L47.62-25.45Q48.93-24.55 48.93-21.72L48.93-21.72L48.89-20.88Q48.85-20.02 48.85-19.10L48.85-19.10Q48.85-16.88 49.92-13.58Q51.00-10.29 51.88-10.29L51.88-10.29L52.17-10.55Q53.18-11.89 53.87-14.96Q54.55-18.03 54.55-20.82L54.55-20.82L54.45-21.64L54.39-22.42Q54.39-24.69 55.92-25.66L55.92-25.66Q56.70-26.17 58.82-26.17Q60.94-26.17 62.01-24.53L62.01-24.53Q62.73-23.44 62.73-21.31Q62.73-19.18 65.49-11.35L65.49-11.35Q65.90-10.16 66.09-10.16L66.09-10.16Q67.36-11.17 67.83-12.75L67.83-12.75Q69.24-17.44 69.24-19.79L69.24-19.79Q69.24-20.37 69.16-21.45L69.16-21.45L69.08-22.25L68.93-22.97L68.77-23.59Q68.77-25.10 70.30-25.83Q71.84-26.56 73.59-26.56Z M87.29-16.66L87.29-16.66L86.72-16.66Q85.49-16.66 84.37-15.38Q83.24-14.10 83.24-12.32L83.24-12.32L83.24-12.01Q83.24-11.29 84.04-11.29L84.04-11.29L84.24-11.25L85.63-11.25L85.72-11.27L88.98-11.46Q89.28-11.52 89.38-11.52L89.38-11.52Q90.37-11.52 90.37-12.56L90.37-12.56L90.37-13.20Q90.37-14.51 89.43-15.59Q88.50-16.66 87.29-16.66ZM83.48-7.36L83.48-7.36Q83.48-5.41 85.31-3.98L85.31-3.98Q86.68-2.91 88.79-2.91L88.79-2.91Q89.75-2.91 91.63-3.46Q93.52-4.00 93.81-4.00L93.81-4.00Q94.69-4.00 94.69-3.05L94.69-3.05Q94.69-1.91 92.35-0.75Q90.02 0.41 87.52 0.41L87.52 0.41L86.66 0.41Q86.62 0.41 86.56 0.41L86.56 0.41Q84.98 0.41 83.34-0.23L83.34-0.23Q80.10-1.48 78.73-4.61L78.73-4.61Q77.79-6.76 77.79-8.69L77.79-8.69L77.79-9.59Q77.79-11.56 78.48-13.40L78.48-13.40Q79.77-16.86 83.03-18.38L83.03-18.38Q84.98-19.28 87.13-19.28L87.13-19.28L87.58-19.28Q90.76-19.28 92.95-17.30L92.95-17.30Q94.10-16.25 94.72-14.77Q95.33-13.28 95.33-11.75Q95.33-10.21 93.83-9.73L93.83-9.73Q91.72-9.04 86.02-9.04L86.02-9.04Q84.49-9.04 83.98-8.66Q83.48-8.28 83.48-7.36Z M105.25-5.66L105.25-5.66Q105.25-4.00 106.04-3.08Q106.84-2.15 108.22-2.15L108.22-2.15L109.12-2.15Q110.66-2.15 111.81-3.97Q112.95-5.80 112.95-8.48L112.95-8.48L112.95-9.79Q112.95-12.75 111.77-14.53Q110.59-16.31 108.87-16.31L108.87-16.31L108.54-16.31Q106.60-16.31 105.86-14.99Q105.12-13.67 105.12-9.47L105.12-9.47L105.12-9.08L105.14-8.89L105.14-7.93L105.16-7.73Q105.16-7.54 105.16-7.34L105.16-7.34L105.23-6.04Q105.25-5.84 105.25-5.66ZM101.78-0.16L101.78-0.16Q100.35-0.16 99.89-0.65Q99.43-1.15 99.43-1.86Q99.43-2.56 99.80-4.89Q100.18-7.23 100.18-8.11L100.18-8.11L100.20-8.57L100.20-10.49L100.21-11.45L100.21-14.82Q100.21-22.38 100.02-23.48Q99.82-24.57 99.06-25.18L99.06-25.18Q97.75-26.23 97.75-26.58L97.75-26.58Q97.75-27.40 99.30-27.81L99.30-27.81Q101.56-28.42 102.95-28.42L102.95-28.42L103.40-28.42Q104.84-28.42 105.14-27.27L105.14-27.27Q105.33-26.48 105.33-22.71Q105.33-18.95 105.43-18.52L105.43-18.52Q105.59-17.83 106.45-17.83L106.45-17.83Q106.45-17.83 106.95-18.01L106.95-18.01Q109.28-18.83 110.92-18.83L110.92-18.83Q114.45-18.83 116.52-16.20Q118.59-13.57 118.59-9.84L118.59-9.84L118.59-9.36Q118.59-7.36 117.77-5.45L117.77-5.45Q116.19-1.72 112.77-0.35L112.77-0.35Q110.92 0.39 109.14 0.39L109.14 0.39L108.67 0.39Q108.09 0.39 106.88 0.14Q105.66-0.12 104.41-0.12L104.41-0.12L103.98-0.16Q103.32-0.21 103.11-0.21L103.11-0.21L102.66-0.20Q102.07-0.16 101.78-0.16Z"/></g>
</svg>
</g></svg></svg>