<svg version="1.1" preserveAspectRatio="none" xmlns="http://www.w3.org/2000/svg" width="500" height="500" viewBox="0 0 500 500"><rect width="100%" height="100%" fill="#121212" fill-opacity="1"/><svg viewBox="1037.6893 885.37 397.6652 100" width="333" height="83.73878327799365" x="83.5px" y="208.1306px" xmlns="http://www.w3.org/2000/svg" xmlns:xlink="http://www.w3.org/1999/xlink" preserveAspectRatio="none"><defs></defs><style>.companyName {fill:#F5F5F5;fill-opacity:1;}.icon3 {fill:#00DCFB;fill-opacity:1;}.icon3-str {stroke:#00DCFB;stroke-opacity:1;}.shapeStroke-str {stroke:#F5F5F5;stroke-opacity:1;}</style><g opacity="1" transform="rotate(0 1037.6893 979.37)">
<svg width="397.6652" height="6" x="1037.6893" y="979.37" version="1.1" preserveAspectRatio="none" viewBox="0 0 397.6652 6">
  <defs><rect x="0" y="0" width="397.6652" height="6" rx="4%" ry="4%" id="id-UPl23ini1676771625562"></rect></defs><use class="companyName shapeStroke-str" style="stroke-width:0;" xlink:href="#id-UPl23ini1676771625562"></use>
</svg>
</g><g opacity="1" transform="rotate(0 1037.6893 885.37)">
<svg width="397.6652" height="80" x="1037.6893" y="885.37" version="1.1" preserveAspectRatio="none" viewBox="2.8 -28.6 143.16 28.8">
  <g transform="matrix(1 0 0 1 0 0)" class="companyName"><path id="id-D6z1nYkh4" d="M9.20 0L2.80 0L2.80-28.60L8.16-28.60L21.40-19.32L21.60-19.32L34.84-28.60L40.20-28.60L40.20 0L33.80 0L33.80-20.60L24.72-14.52L24.72 0L18.32 0L18.32-14.52L9.20-20.60L9.20 0Z M53.56 0L48.20 0L45-28.60L51.40-28.60L53.76-7.72L61.72-13.84L61.72-28.60L68.12-28.60L68.12-13.80L76-7.72L78.40-28.60L84.80-28.60L81.60 0L76.24 0L64.92-9.16L53.56 0Z M115.16 0.20L98.96 0.20Q93.60 0.20 90.60-2.46Q87.60-5.12 87.60-10.28L87.60-10.28Q87.60-15.48 90.60-18.14Q93.60-20.80 98.96-20.80L98.96-20.80L108.96-20.80Q112.48-20.80 114.34-19.14Q116.20-17.48 116.20-14.40L116.20-14.40Q116.20-8.12 108.96-8.12L108.96-8.12L93.84-8.12Q94.68-4.40 98.96-4.40L98.96-4.40L115.16-4.40L115.16 0.20ZM108.68-16.20L98.96-16.20Q94.84-16.20 93.88-12.72L93.88-12.72L108.68-12.72Q109.48-12.72 109.94-13.20Q110.40-13.68 110.40-14.52L110.40-14.52Q110.40-16.20 108.68-16.20L108.68-16.20Z M125.60 0L119.80 0L119.80-28.60L125.60-28.60L125.60 0ZM134.60 0L120.80 0L120.80-4.60L134.60-4.60Q137.20-4.60 138.58-6.02Q139.96-7.44 139.96-10.28L139.96-10.28Q139.96-13.16 138.58-14.58Q137.20-16 134.60-16L134.60-16L121.20-16L121.20-20.60L134.60-20.60Q139.96-20.60 142.96-17.96Q145.96-15.32 145.96-10.28L145.96-10.28Q145.96-5.28 142.96-2.64Q139.96 0 134.60 0L134.60 0Z"/></g>
</svg>
</g><g opacity="1" transform="rotate(0 1037.6893 979.37)">
<svg width="87.4864" height="6" x="1037.6893" y="979.37" version="1.1" preserveAspectRatio="none" viewBox="0 0 87.4864 6">
  <defs><rect x="0" y="0" width="87.4864" height="6" rx="0px" ry="0px" id="id-o0jQam8yd1676771625562"></rect></defs><use class="icon3 shapeStroke-str" style="stroke-width:0;" xlink:href="#id-o0jQam8yd1676771625562"></use>
</svg>
</g></svg></svg>